<?xml version="1.0" encoding="utf-8"?>
<!-- Generator: Adobe Illustrator 26.5.3, SVG Export Plug-In . SVG Version: 6.00 Build 0)  -->
<svg version="1.1" xmlns="http://www.w3.org/2000/svg" xmlns:xlink="http://www.w3.org/1999/xlink" x="0px" y="0px"
	 viewBox="0 0 198 76" style="enable-background:new 0 0 198 76;" xml:space="preserve">
<style type="text/css">
	.st0{fill:#0094DA;}
	.st1{fill:#FD56AD;}
	.st2{fill:#071E3F;}
	.st3{fill:#FDB01D;}
	.st4{fill:none;}
</style>
<g id="CONTENUS">
</g>
<g id="TEXTES">
</g>
<g id="Calque_1">
	<g>
		<g>
			<g>
				<g>
					<path class="st0" d="M136.2,55.6v6.3h6.3C142.5,58.4,139.7,55.6,136.2,55.6z"/>
					<polygon class="st0" points="122.7,49.2 122.7,54.9 119.5,54.9 					"/>
					<rect x="130.4" y="49.2" class="st1" width="11.5" height="5.7"/>
					<path class="st2" d="M150.5,48.8c3.6,0,6.5,2.9,6.5,6.5v6.4c0,3.6-2.9,6.5-6.5,6.5V48.8z"/>
					<path class="st3" d="M142.5,61.9c0,3.5-2.8,6.3-6.3,6.3c-3.5,0-6.3-2.8-6.3-6.3H142.5z"/>
					<polygon class="st2" points="130.4,54.9 136.2,54.9 136.2,61.9 					"/>
					
						<rect x="116.1" y="55.8" transform="matrix(-1.836970e-16 1 -1 -1.836970e-16 184.2391 -66.9131)" class="st2" width="19" height="5.8"/>
					<path class="st1" d="M150.5,48.8c-3.6,0-6.5,2.9-6.5,6.5v6.4c0,3.6,2.9,6.5,6.5,6.5V48.8z"/>
					<g>
						<path class="st0" d="M154.2,62.6h1.3v0.7h-1.3l-2.1,0.7v-0.7l1.2-0.3l-1.2-0.3v-0.7L154.2,62.6z"/>
						<path class="st0" d="M155.5,61.7h-3.4v-1.6h0.6V61h0.8v-0.8h0.6V61h0.8v-0.9h0.6V61.7z"/>
						<path class="st0" d="M155.5,58.3l-0.5,0.1v0.8l0.5,0.1V60l-3.4-0.9v-0.7l3.4-0.9V58.3z M153.1,58.8l1.3,0.3v-0.5L153.1,58.8z"
							/>
						<path class="st0" d="M155.5,56l-1.3,0.4v0.2h1.3v0.7h-3.4v-1c0-0.7,0.4-1,1-1c0.4,0,0.7,0.1,0.9,0.4l1.5-0.5V56z M152.7,56.4
							v0.3h0.9v-0.3c0-0.3-0.2-0.3-0.4-0.3S152.7,56.1,152.7,56.4z"/>
						<path class="st0" d="M155.3,53.4c0.1,0.2,0.3,0.4,0.3,0.7c0,0.3-0.1,0.6-0.3,0.7c-0.2,0.2-0.4,0.2-0.8,0.2v-0.7
							c0.1,0,0.2,0,0.3-0.1c0,0,0.1-0.1,0.1-0.2c0-0.1,0-0.2-0.1-0.2c-0.1,0-0.1-0.1-0.3-0.1c-0.3,0-0.4,0.1-0.5,0.3l-0.2,0.4
							c-0.1,0.3-0.3,0.5-0.9,0.5c-0.3,0-0.6-0.1-0.8-0.3c-0.1-0.2-0.2-0.4-0.2-0.6c0-0.3,0.1-0.5,0.2-0.7c0.2-0.2,0.4-0.3,0.8-0.3
							v0.7c-0.1,0-0.2,0-0.3,0.1c-0.1,0-0.1,0.1-0.1,0.2c0,0.1,0,0.2,0.1,0.2c0.1,0,0.1,0.1,0.2,0.1c0.2,0,0.3,0,0.4-0.2l0.2-0.4
							c0.2-0.4,0.4-0.6,1-0.6C154.9,53.2,155.1,53.2,155.3,53.4z"/>
					</g>
				</g>
			</g>
			<g>
				<g>
					<rect x="174.3" y="60.1" class="st2" width="2.3" height="1.4"/>
					<g>
						<polygon class="st3" points="166.9,57.2 166.9,55.9 162.8,55.9 162.8,57.2 164.1,57.2 164.1,57.2 165.6,57.2 165.6,57.2 
													"/>
						<rect x="164.1" y="57.2" class="st2" width="1.5" height="4.3"/>
						<polygon class="st2" points="169.1,57.9 169.1,55.9 167.5,55.9 167.5,61.5 169.1,61.5 169.1,59.3 169.1,59.3 169.1,57.9 
													"/>
						<polygon class="st2" points="170.3,61.5 171.8,61.5 171.8,55.9 170.3,55.9 170.3,57.9 169.1,57.9 169.1,59.3 170.3,59.3 
													"/>
						<rect x="174.3" y="58" class="st2" width="2" height="1.4"/>
						<rect x="174.3" y="55.9" class="st1" width="2.3" height="1.4"/>
						<rect x="174.3" y="59.3" class="st2" width="0" height="0.8"/>
						<rect x="174.3" y="57.2" class="st2" width="0" height="0.7"/>
						<polygon class="st2" points="174.2,57.2 174.3,57.2 174.3,55.9 172.7,55.9 172.7,61.5 174.3,61.5 174.3,60.1 174.2,60.1 
							174.2,59.3 174.3,59.3 174.3,58 174.2,58 						"/>
					</g>
				</g>
				<g>
					<g>
						<path class="st2" d="M175.3,52.9c-0.1,0.4-0.3,0.5-0.6,0.5c-0.2,0-0.4-0.1-0.5-0.2c-0.1-0.1-0.2-0.3-0.2-1.3
							c0-1,0.1-1.2,0.2-1.3c0.1-0.1,0.3-0.2,0.5-0.2c0.3,0,0.5,0.2,0.6,0.5l0,0.1h1.5l0-0.1c-0.2-1.2-1-1.9-2.1-1.9
							c-0.6,0-1.1,0.2-1.6,0.6c-0.6,0.6-0.6,1.3-0.6,2.1v0.2c0,0.8,0,1.6,0.6,2.1c0.4,0.4,0.9,0.6,1.6,0.6c1.2,0,2-0.7,2.1-1.9
							l0-0.1L175.3,52.9L175.3,52.9z"/>
						<path class="st2" d="M168.2,49.8c-0.6,0.6-0.6,1.3-0.6,2.1v0.2c0,0.8,0,1.6,0.6,2.1c0.4,0.4,0.9,0.6,1.6,0.6v-5.7
							C169.1,49.1,168.6,49.3,168.2,49.8"/>
						<path class="st0" d="M171.3,54.2c0.6-0.6,0.6-1.3,0.6-2.1v-0.2c0-0.8,0-1.6-0.6-2.1c-0.4-0.4-0.9-0.6-1.6-0.6c0,0,0,0,0,0v5.7
							c0,0,0,0,0,0C170.4,54.8,170.9,54.6,171.3,54.2"/>
					</g>
					<polygon class="st2" points="180.2,49.2 178.8,50.9 178.8,53 179.2,52.6 180.4,54.8 182.1,54.8 180.2,51.5 182.1,49.2 					"/>
					<polygon class="st2" points="177.3,49.2 177.3,54.8 178.8,54.8 178.8,53 178.8,53 178.8,50.9 178.8,50.9 178.8,49.2 					"/>
					<g>
						<path class="st2" d="M166.1,52.5c0.3-0.2,0.9-0.6,0.9-1.5c0-0.9-0.7-1.8-1.9-1.8h-2.2v3.6h1.5v0h0.3l1,2h1.7L166.1,52.5z"/>
					</g>
					<rect x="162.8" y="52.8" class="st1" width="1.5" height="2"/>
				</g>
				<g>
					<g>
						<path class="st2" d="M164.9,63.9c0.3,0,0.5,0.2,0.6,0.5l0,0.1h1.5l0-0.1c-0.2-1.2-1-1.9-2.1-1.9c-0.6,0-1.1,0.2-1.6,0.6
							c-0.6,0.6-0.6,1.3-0.6,2.1v0.2c0,0.8,0,1.6,0.6,2.1c0.4,0.4,0.9,0.6,1.6,0.6c1.2,0,2-0.7,2.1-1.9l0-0.1h-1.5l0,0.1
							c-0.1,0.4-0.3,0.5-0.6,0.5c-0.2,0-0.4-0.1-0.5-0.2c-0.1-0.1-0.2-0.3-0.2-1.3c0-1,0.1-1.2,0.2-1.3
							C164.6,63.9,164.7,63.9,164.9,63.9"/>
						<path class="st2" d="M175.2,66.1c0,0.4-0.2,0.7-0.6,0.7c-0.4,0-0.6-0.3-0.6-0.7v-3.6h-1.5v3.6c0,1.2,0.9,2,2.1,2
							c1.2,0,2.2-0.9,2.2-2v-3.6h-1.5V66.1z"/>
						<path class="st2" d="M180.8,65.8c0.3-0.2,0.9-0.6,0.9-1.5c0-0.9-0.7-1.8-1.9-1.8h-2.2v3.6h1.5v0h0.3l1,2h1.7L180.8,65.8z"/>
					</g>
					<rect x="177.5" y="66.1" class="st0" width="1.5" height="2"/>
					<polygon class="st2" points="183.5,62.5 183.5,63.9 183.5,63.9 183.5,68.2 185,68.2 185,63.9 186.3,63.9 186.3,62.5 					"/>
					<rect x="182.2" y="62.5" class="st1" width="1.3" height="1.4"/>
					<path class="st3" d="M168,63.1c-0.6,0.6-0.6,1.3-0.6,2.1v0.2c0,0.8,0,1.6,0.6,2.1c0.4,0.4,0.9,0.6,1.6,0.6v-5.7
						C168.9,62.5,168.4,62.7,168,63.1"/>
					<path class="st2" d="M171.1,67.6c0.6-0.6,0.6-1.3,0.6-2.1v-0.2c0-0.8,0-1.6-0.6-2.1c-0.4-0.4-0.9-0.6-1.6-0.6c0,0,0,0,0,0v5.7
						c0,0,0,0,0,0C170.2,68.2,170.7,68,171.1,67.6"/>
					<path class="st2" d="M190.3,65.1c-0.2-0.2-0.6-0.4-1.1-0.5l-0.7-0.1c-0.1,0-0.2-0.1-0.3-0.1c-0.1-0.1-0.1-0.1-0.1-0.2
						c0-0.2,0.2-0.4,0.5-0.4h0c0.2,0,0.6,0,0.9,0.3l0.1,0.1l1-1l-0.1-0.1c-0.5-0.5-1.1-0.7-1.9-0.7c-1.2,0-2.1,0.7-2.1,1.8
						c0,0.5,0.1,0.9,0.4,1.2c0.3,0.3,0.6,0.4,1.1,0.5l0.7,0.1c0.1,0,0.2,0.1,0.3,0.1c0.1,0.1,0.1,0.1,0.1,0.2c0,0.1,0,0.4-0.7,0.4
						c-0.2,0-0.8,0-1.1-0.3l-0.1-0.1l-1,1l0.1,0.1c0.5,0.5,1.1,0.7,2.1,0.7c1.3,0,2.2-0.7,2.2-1.8C190.7,65.8,190.6,65.4,190.3,65.1
						"/>
				</g>
			</g>
		</g>
	</g>
	<g>
		<g>
			<g>
				<path class="st2" d="M147.7,29.4c0.4-1.6,0.2-2.7-0.8-3.8c-1.3-1.4-2.5-1.9-8.7-1.9h-0.2c-3.5,0-6.3,0-8,1.2
					c-1.9,1.4-2.1,2.8-2.5,4.5c0,0-0.7,2.7-1.2,4.9c-0.5,2.2,1,4.6,6.8,4.6l3.5,0c2.9,0,5.7,0.1,7.5-1c1.5-0.9,2-2.4,2.4-3.5
					C146.8,33.6,147.7,29.4,147.7,29.4z M132,31.2c0.5-1.7,0.5-2.2,1.5-2.9c0.9-0.6,2.2-0.6,4-0.6h0.1c3.2,0,3.7,0.2,4.4,1
					c0.6,0.7,0.4,1.4,0.2,2.4l-0.1,0.2l-0.1,0.4c-0.2,1-0.4,1.7-1.4,2.4c-0.9,0.6-2.1,0.5-3.6,0.5l-0.8,0c-1.8,0-3.2,0-3.9-0.7
					C131.5,33.3,131.6,32.8,132,31.2z"/>
				<path class="st2" d="M83.4,33.6c0-2.2-2.7-3.7-2.9-3.9c-0.1,0-0.1-0.1-0.1-0.1c0-0.1,0.1-0.2,0.3-0.4c0,0,0.7-0.4,1.7-1.3
					c0.9-0.8,1.6-1.7,1.8-2.8c0.2-0.9,0.1-1.6-0.2-2.2c-0.5-1-1.3-1.8-2.7-2.2c-1.6-0.5-3.6-0.6-4.8-0.6H65.4
					c-0.4,0-0.7,0.3-0.8,0.7l-4.3,17.9l11.7,0c0.3,0,0.8,0,1.2,0c0.2,0,3.3,0,4.6-0.3c1.7-0.4,2.5-0.8,3.5-1.5
					c0.9-0.6,1.4-1.4,1.8-2.2 M76.3,33.3c-0.2,0.8-0.8,1.4-1.8,1.8c-0.4,0.2-0.8,0.3-1.3,0.3c-0.4,0.1-1.4,0-1.4,0
					c-0.3,0-3.2,0-3.2,0c-0.1,0-0.2,0-0.3-0.1c-0.1-0.1-0.1-0.3-0.1-0.5l0.7-3c0.1-0.3,0.3-0.6,0.7-0.6h3c0.7,0,1.9,0,2.8,0.4
					C76.2,32,76.5,32.5,76.3,33.3z M75.2,27.7c-0.4,0.1-1.4,0.1-1.4,0.1c-0.4,0-3.3,0-3.3,0c-0.1,0-0.2,0-0.3-0.1
					c-0.1-0.1-0.1-0.3-0.1-0.5l0.7-3c0.1-0.3,0.4-0.6,0.6-0.6h3.6c1.6,0,3.5,0.3,3,1.9c-0.2,0.7-0.7,1.4-1.7,1.8
					C76,27.6,75.6,27.7,75.2,27.7z"/>
				<path class="st2" d="M156.3,20.5c-0.1-0.1-0.2-0.2-0.4-0.2h-4.6c-0.3,0-0.7,0.3-0.8,0.8l-4.2,17.7h5.8l4.2-17.7
					C156.5,20.9,156.5,20.6,156.3,20.5z"/>
				<path class="st2" d="M103.3,38.8l2.1-8.4c0.9-3.4-0.2-5.4-3.2-6.2c-0.6-0.1-1.3-0.3-1.9-0.3c-0.6,0-2.9-0.1-3-0.1l-1.1,0h-8.3
					c-0.6,0-0.9,0.4-1,0.8l-0.4,1.7c-0.1,0.3,0,0.5,0.1,0.7c0.1,0.1,0.3,0.2,0.4,0.2c0,0,8,0,10.4,0c2,0,2.5,0.8,2.2,1.9
					c-0.1,0.4-0.3,0.5-0.7,0.5h-6.2c-2.2,0-3.9,0.1-4.9,0.4c-1.2,0.3-2.2,0.8-3,1.6c-0.9,0.8-1.4,1.7-1.7,2.7
					c-0.4,1.7,0.2,2.9,1.7,3.7c0.5,0.3,1.2,0.5,2,0.6c0.8,0.1,3.7,0.1,3.9,0.1h1.1L103.3,38.8z M89.1,34.3c0.1-0.4,0.3-0.7,0.7-1
					c0.4-0.2,0.9-0.3,2.1-0.3h1h5.4c0.1,0,0.2,0,0.2,0.1c0.1,0.1,0.1,0.3,0.1,0.5l-0.3,1.2c-0.1,0.4-0.4,0.7-0.6,0.7h-6.2
					c-1.1,0-1.6,0-2-0.2C89.2,35.1,89,34.7,89.1,34.3z"/>
				<path class="st2" d="M174,38.8l2-8.4c0.9-3.3-0.1-5.4-3.1-6.2c-0.6-0.1-1.3-0.3-1.9-0.3c-0.6,0-2.9-0.1-3-0.1l-9.4,0
					c-0.6,0-0.9,0.4-1,0.8l-0.4,1.7c-0.1,0.3,0,0.5,0.1,0.7c0.1,0.1,0.3,0.2,0.4,0.2c0,0,8.1,0,10.5,0c2,0,2.6,0.8,2.2,1.9
					c-0.1,0.4-0.3,0.5-0.7,0.5h-6.3c-2.2,0-3.9,0.1-4.9,0.4c-1.2,0.3-2.2,0.8-3,1.6c-0.9,0.8-1.4,1.7-1.7,2.7
					c-0.4,1.7,0.2,2.9,1.7,3.7c0.5,0.3,1.2,0.5,2.1,0.6c0.8,0.1,3.7,0.1,3.9,0.1L174,38.8z M159.9,34.3c0.1-0.4,0.3-0.7,0.7-1
					c0.4-0.2,0.9-0.3,2.1-0.3h1h5.4c0.1,0,0.2,0,0.2,0.1c0.1,0.1,0.1,0.3,0.1,0.5l-0.3,1.2c-0.1,0.4-0.4,0.7-0.6,0.7h-6.2
					c-1.1,0-1.6,0-2-0.2C159.9,35.1,159.8,34.7,159.9,34.3z"/>
				<path class="st2" d="M191.2,20.5c-0.1-0.1-0.2-0.2-0.4-0.2h-14c-0.3,0-0.7,0.2-0.8,0.7l-0.5,2.3c-0.1,0.3-0.1,0.5,0.1,0.7
					c0.1,0.1,0.2,0.2,0.3,0.2h2.1c0.1,0,0.2,0,0.3,0.1c0.1,0.1,0.1,0.3,0,0.5l-3.4,14.1h6.1l3.4-14.1c0.1-0.4,0.3-0.7,0.6-0.7h5
					c0.3,0,0.7-0.4,0.8-0.8l0.5-2.1C191.3,20.9,191.3,20.6,191.2,20.5z"/>
				<path class="st2" d="M123.3,24.1c-0.6-0.2-1.3-0.2-1.9-0.3c-0.6,0-2.9-0.1-3-0.1l-1.1,0h-3.8l0.6-2.6c0.1-0.3,0-0.5-0.1-0.7
					c-0.1-0.1-0.2-0.2-0.3-0.2h-4.5c-0.4,0-0.7,0.4-0.8,0.8l-4.2,17.7l0,0c0,0,9.3,0,12.2,0c3.9,0,7.9-0.4,9.1-4.5
					c0.2-0.8,0.9-4,0.9-4C127.3,27,126.3,25,123.3,24.1z M120.2,30.8c0,0-0.3,1.5-0.4,1.8c-0.5,1.9-2.3,2.1-4,2.1l-4.8,0l1.6-6.9h4
					c0,0,1,0,1.3,0c0.3,0,0.6,0.1,0.8,0.1C120.1,28.3,120.6,29.3,120.2,30.8z"/>
			</g>
			<g>
				<path class="st2" d="M184.6,37.5h-0.5l0.1-0.2h1.4l-0.1,0.2H185l-0.3,1.3h-0.3L184.6,37.5z"/>
				<path class="st2" d="M187.2,38.2c0-0.2,0.1-0.4,0.1-0.7h0c-0.1,0.2-0.2,0.4-0.4,0.6l-0.4,0.7h-0.3l-0.1-0.7
					c0-0.2-0.1-0.4-0.1-0.6h0c-0.1,0.2-0.1,0.5-0.2,0.7l-0.2,0.6h-0.3l0.5-1.6h0.5l0.1,0.6c0,0.2,0,0.4,0.1,0.5h0
					c0.1-0.2,0.2-0.4,0.3-0.5l0.4-0.6h0.4l-0.2,1.6h-0.3L187.2,38.2z"/>
			</g>
		</g>
		<g>
			<polygon class="st2" points="49.3,42.4 48,42.4 47.9,42.6 48.4,42.6 48.2,43.8 48.5,43.8 48.7,42.6 49.2,42.6 			"/>
			<path class="st2" d="M50.4,43c-0.1,0.2-0.2,0.3-0.3,0.5h0c0-0.2,0-0.3-0.1-0.5L50,42.4h-0.4l-0.4,1.4h0.3l0.2-0.6
				c0.1-0.2,0.1-0.4,0.2-0.6h0c0,0.2,0,0.4,0.1,0.6l0.1,0.6h0.2l0.4-0.6c0.1-0.2,0.2-0.4,0.3-0.6h0c0,0.2-0.1,0.4-0.1,0.6l-0.1,0.6
				H51l0.2-1.4h-0.4L50.4,43z"/>
			<g>
				<path class="st2" d="M60.5,15c0,0-18.2,0-18.8,0c-1.4,0-5.3,0.1-8.5,3.3c-2.9,2.8-6.2,5.9-7.4,7h29.6L60.5,15z"/>
				<g>
					<path class="st2" d="M20.8,30.1L6.1,44.1c0,0,34,0,34.3,0c0.3,0,5.6,0.2,7.5-3.6c1.8-3.6,4.4-8.9,5.1-10.3H20.8z"/>
				</g>
			</g>
		</g>
	</g>
	<g>
		<rect x="0" y="0" class="st4" width="198" height="75.7"/>
	</g>
</g>
</svg>
