<svg xmlns="http://www.w3.org/2000/svg" viewBox="0 0 331.48 46.58"><defs><style>.cls-1{fill:#184f8b;}.cls-2{fill:#f68c2d;}</style></defs><g id="Layer_2" data-name="Layer 2"><g id="Layer_1-2" data-name="Layer 1"><rect class="cls-1" x="52" width="5.17" height="46.58"/><path class="cls-1" d="M80.94,10.36a32.11,32.11,0,0,0-14.21,3.55l-.51.27v32.4h5.17V17.35a26.81,26.81,0,0,1,9.22-1.75c7.52,0,8.49,4,8.49,7.49V46.58h5.24V23.09C94.34,14.88,89.58,10.36,80.94,10.36Z"/><path class="cls-1" d="M113.8,41.65c-3.25,0-4.52-1.23-4.52-4.39V15.2h9.26V10.36h-9.26V0H104V10.36H98.88V15.2H104V37.4c0,6,3.24,9.11,9.36,9.11a17.81,17.81,0,0,0,4.55-.62l.72-.19V40.59l-1.29.46A10.51,10.51,0,0,1,113.8,41.65Z"/><path class="cls-1" d="M159.5,13.49l-.58.25V46.58h5.17V17.22A44.79,44.79,0,0,1,175,15.47l.94,0V10.36h-1A41.93,41.93,0,0,0,159.5,13.49Z"/><path class="cls-1" d="M193.54,10.36c-7.29,0-16,3.14-16,18.11,0,15.9,8.68,18.11,16,18.11a26.56,26.56,0,0,0,9.67-1.84l.62-.24V39.42l-1.32.54a23.17,23.17,0,0,1-8.64,1.7c-7.7,0-11.13-4.31-11.13-13.19s3.43-12.84,11.13-12.84a24.54,24.54,0,0,1,8.66,1.71l1.3.5V12.42l-.64-.23A28,28,0,0,0,193.54,10.36Z"/><path class="cls-1" d="M211.27,13.49l-.59.25V46.58h5.18V17.22a44.79,44.79,0,0,1,10.89-1.75l.94,0V10.36h-1A41.93,41.93,0,0,0,211.27,13.49Z"/><path class="cls-1" d="M286.8,11.53a27.62,27.62,0,0,0-8.16-1.2c-7.13,0-15.64,3.09-15.64,17.82,0,16,9.51,18.43,15.18,18.43,13.13,0,13.8-9.43,13.8-11.32V0H286.8Zm0,23.86c0,3.79-3.22,6-8.62,6-4.63,0-9.94-1.51-9.94-13.29,0-8.88,3.11-12.67,10.4-12.67A22.47,22.47,0,0,1,286.8,17Z"/><rect class="cls-1" x="300.03" y="10.36" width="5.17" height="36.22"/><path class="cls-1" d="M152.64,28.31c0-.41,0-.79,0-1h0a24.9,24.9,0,0,0-1.82-8.47c-2.37-5.52-6.84-8.43-12.93-8.43-5.87,0-10.16,2.5-12.75,7.44a25.53,25.53,0,0,0-2.5,11.35c0,3.08.49,7.51,2.81,11.11,2.7,4.19,7.2,6.32,13.37,6.32a27,27,0,0,0,11.12-2.22l.56-.27V38.63l-1.44.82a21.27,21.27,0,0,1-10,2.2,16.94,16.94,0,0,1-3.64-.36l-.17,0c-7.09-1.39-7.21-9.81-7.21-9.81h24.55s0-.63,0-1.43c0-.28,0-.7,0-1.35C152.65,28.55,152.64,28.43,152.64,28.31ZM128,26.44c.71-9,5.64-10.86,9.68-10.86a8.47,8.47,0,0,1,8.3,5.24,17,17,0,0,1,1.34,5.62Z"/><rect class="cls-1" x="300.03" width="5.18" height="5.18"/><path class="cls-1" d="M326.61,41.65c-3.25,0-4.52-1.23-4.52-4.39V15.2h9.26V10.36h-9.26V0h-5.24V10.36h-5.16V15.2h5.16V37.4c0,6,3.24,9.11,9.36,9.11a17.81,17.81,0,0,0,4.55-.62l.72-.19V40.59l-1.29.46A10.51,10.51,0,0,1,326.61,41.65Z"/><path class="cls-1" d="M258.79,28.31c0-.41,0-.79,0-1h0a24.9,24.9,0,0,0-1.82-8.47c-2.37-5.52-6.84-8.43-12.93-8.43-5.87,0-10.16,2.5-12.75,7.44a25.53,25.53,0,0,0-2.5,11.35c0,3.08.49,7.51,2.81,11.11,2.7,4.19,7.2,6.32,13.37,6.32a27,27,0,0,0,11.12-2.22l.56-.27V38.63l-1.44.82a21.27,21.27,0,0,1-10,2.2,16.94,16.94,0,0,1-3.64-.36l-.17,0c-7.09-1.39-7.21-9.81-7.21-9.81h24.55s0-.63,0-1.43c0-.28,0-.7,0-1.35C258.8,28.55,258.79,28.43,258.79,28.31Zm-24.66-1.87c.71-9,5.64-10.86,9.68-10.86a8.47,8.47,0,0,1,8.3,5.24,17,17,0,0,1,1.34,5.62Z"/><path class="cls-2" d="M5.18,23.41a13.06,13.06,0,0,1,22.3-9.23l3.66-3.66A18.24,18.24,0,1,0,5.34,36.31L9,32.65A13,13,0,0,1,5.18,23.41Z"/><path class="cls-1" d="M31.3,5.18a5.18,5.18,0,1,1,5.18,5.17A5.18,5.18,0,0,1,31.3,5.18Z"/></g></g></svg>